<svg width="35" height="35" viewBox="0 0 35 35" fill="none" xmlns="http://www.w3.org/2000/svg">
<path d="M17.5 32.0833C25.5542 32.0833 32.0834 25.5541 32.0834 17.5C32.0834 9.44584 25.5542 2.91666 17.5 2.91666C9.44587 2.91666 2.91669 9.44584 2.91669 17.5C2.91669 25.5541 9.44587 32.0833 17.5 32.0833Z" fill="#3192FF" stroke="#3192FF" stroke-width="3"/>
<path d="M13.125 23.3333C14.3651 24.2525 15.8734 24.7917 17.5 24.7917C19.1266 24.7917 20.6348 24.2525 21.875 23.3333" fill="white"/>
<path d="M13.125 23.3333C14.3651 24.2525 15.8734 24.7917 17.5 24.7917C19.1266 24.7917 20.6348 24.2525 21.875 23.3333" stroke="#1147B4" stroke-width="3" stroke-linecap="round"/>
<mask id="path-4-inside-1_3715_943" fill="white">
<path d="M23.3334 15.3125C23.3334 16.5206 22.6805 17.5 21.875 17.5C21.0696 17.5 20.4167 16.5206 20.4167 15.3125C20.4167 14.1044 21.0696 13.125 21.875 13.125C22.6805 13.125 23.3334 14.1044 23.3334 15.3125Z"/>
</mask>
<path d="M23.3334 15.3125C23.3334 16.5206 22.6805 17.5 21.875 17.5C21.0696 17.5 20.4167 16.5206 20.4167 15.3125C20.4167 14.1044 21.0696 13.125 21.875 13.125C22.6805 13.125 23.3334 14.1044 23.3334 15.3125Z" fill="#0E45B3"/>
<path d="M23.3334 15.3125H20.3334C20.3334 15.4069 20.3024 15.3567 20.4101 15.1952C20.5037 15.0547 20.9626 14.5 21.875 14.5V17.5V20.5C23.5929 20.5 24.7809 19.4556 25.4024 18.5234C26.0378 17.5702 26.3334 16.4262 26.3334 15.3125H23.3334ZM21.875 17.5V14.5C22.7875 14.5 23.2463 15.0547 23.34 15.1952C23.4476 15.3567 23.4167 15.4069 23.4167 15.3125H20.4167H17.4167C17.4167 16.4262 17.7122 17.5702 18.3476 18.5234C18.9691 19.4556 20.1571 20.5 21.875 20.5V17.5ZM20.4167 15.3125H23.4167C23.4167 15.2181 23.4476 15.2683 23.34 15.4298C23.2463 15.5703 22.7874 16.125 21.875 16.125V13.125V10.125C20.1572 10.125 18.9691 11.1694 18.3477 12.1016C17.7122 13.0548 17.4167 14.1988 17.4167 15.3125H20.4167ZM21.875 13.125V16.125C20.9626 16.125 20.5037 15.5703 20.4101 15.4298C20.3024 15.2683 20.3334 15.2181 20.3334 15.3125H23.3334H26.3334C26.3334 14.1988 26.0378 13.0548 25.4024 12.1016C24.7809 11.1694 23.5929 10.125 21.875 10.125V13.125Z" fill="#1147B4" mask="url(#path-4-inside-1_3715_943)"/>
<mask id="path-6-inside-2_3715_943" fill="white">
<path d="M13.125 17.5C13.9304 17.5 14.5834 16.5206 14.5834 15.3125C14.5834 14.1044 13.9304 13.125 13.125 13.125C12.3196 13.125 11.6667 14.1044 11.6667 15.3125C11.6667 16.5206 12.3196 17.5 13.125 17.5Z"/>
</mask>
<path d="M13.125 17.5C13.9304 17.5 14.5834 16.5206 14.5834 15.3125C14.5834 14.1044 13.9304 13.125 13.125 13.125C12.3196 13.125 11.6667 14.1044 11.6667 15.3125C11.6667 16.5206 12.3196 17.5 13.125 17.5Z" fill="#0E45B3"/>
<path d="M14.5834 15.3125H11.5834C11.5834 15.4069 11.5524 15.3567 11.6601 15.1952C11.7537 15.0547 12.2126 14.5 13.125 14.5V17.5V20.5C14.8429 20.5 16.0309 19.4556 16.6524 18.5234C17.2878 17.5702 17.5834 16.4262 17.5834 15.3125H14.5834ZM13.125 17.5V14.5C14.0375 14.5 14.4963 15.0547 14.59 15.1952C14.6976 15.3567 14.6667 15.4069 14.6667 15.3125H11.6667H8.66669C8.66669 16.4262 8.96222 17.5702 9.59767 18.5234C10.2191 19.4556 11.4072 20.5 13.125 20.5V17.5ZM11.6667 15.3125H14.6667C14.6667 15.2181 14.6976 15.2683 14.59 15.4298C14.4963 15.5703 14.0375 16.125 13.125 16.125V13.125V10.125C11.4072 10.125 10.2191 11.1694 9.59767 12.1016C8.96222 13.0548 8.66669 14.1988 8.66669 15.3125H11.6667ZM13.125 13.125V16.125C12.2126 16.125 11.7537 15.5703 11.6601 15.4298C11.5524 15.2683 11.5834 15.2181 11.5834 15.3125H14.5834H17.5834C17.5834 14.1988 17.2878 13.0548 16.6524 12.1016C16.0309 11.1694 14.8429 10.125 13.125 10.125V13.125Z" fill="#1147B4" mask="url(#path-6-inside-2_3715_943)"/>
</svg>
