<svg width="17" height="16" viewBox="0 0 17 16" fill="none" xmlns="http://www.w3.org/2000/svg">
<rect y="1.125" width="16.88" height="14.875" fill="white"/>
<circle cx="8.89" cy="8.89" r="6.89" fill="#00ABC2"/>
<path d="M7.0525 7.44C7.0525 7.62 6.98583 7.77667 6.8525 7.91C6.72583 8.03667 6.5725 8.1 6.3925 8.1C6.2125 8.1 6.05583 8.03667 5.9225 7.91C5.79583 7.77667 5.7325 7.62 5.7325 7.44C5.7325 7.25333 5.79583 7.09667 5.9225 6.97C6.04917 6.84333 6.20583 6.78 6.3925 6.78C6.5725 6.78 6.72583 6.84667 6.8525 6.98C6.98583 7.10667 7.0525 7.26 7.0525 7.44ZM11.6326 7.44C11.6326 7.62 11.5659 7.77667 11.4326 7.91C11.3059 8.03667 11.1526 8.1 10.9726 8.1C10.7926 8.1 10.6359 8.03667 10.5026 7.91C10.3759 7.77667 10.3126 7.62 10.3126 7.44C10.3126 7.25333 10.3759 7.09667 10.5026 6.97C10.6292 6.84333 10.7859 6.78 10.9726 6.78C11.1526 6.78 11.3059 6.84667 11.4326 6.98C11.5659 7.10667 11.6326 7.26 11.6326 7.44Z" fill="white"/>
<path d="M8.864 12.459C8.29 12.459 7.73933 12.3493 7.212 12.13C6.68933 11.9107 6.21333 11.6143 5.784 11.241L5.847 10.772C6.14567 11.0147 6.45367 11.2153 6.771 11.374C7.08833 11.5327 7.41967 11.6517 7.765 11.731C8.115 11.8103 8.48133 11.85 8.864 11.85C9.25133 11.85 9.61767 11.8103 9.963 11.731C10.3083 11.6517 10.6397 11.5327 10.957 11.374C11.2743 11.2153 11.5823 11.0147 11.881 10.772L11.951 11.241C11.5217 11.6143 11.0433 11.9107 10.516 12.13C9.98867 12.3493 9.438 12.459 8.864 12.459Z" fill="white"/>
</svg>
