<svg width="65" height="38" viewBox="0 0 65 38" fill="none" xmlns="http://www.w3.org/2000/svg">
<mask id="mask0_3711_923" style="mask-type:luminance" maskUnits="userSpaceOnUse" x="0" y="1" width="26" height="27">
<path d="M26 1.26666H0V27.8667H26V1.26666Z" fill="white"/>
</mask>
<g mask="url(#mask0_3711_923)">
<path d="M7.11709 6.99142C5.83742 6.99142 4.7771 8.07619 4.7771 9.38542V11.8168H18.2813L20.7188 16.4926H4.7771V21.4302C4.7771 22.7394 5.83742 23.8242 7.11709 23.8242H23.5626L25.8006 28.5H7.11709C3.31459 28.5 0.243347 25.3205 0.243347 21.4302V9.38542C0.243347 5.49515 3.31459 2.31561 7.11709 2.31561H13.4063L15.8438 6.99142H7.11709Z" fill="#303030"/>
</g>
<path d="M61.966 23.75L64.3432 28.5H59.1435L56.7663 23.75L51.0835 12.35L45.4006 23.75L43.0235 28.5H37.8235L40.2006 23.75L51.0835 1.89999L61.966 23.75Z" fill="#303030"/>
<path d="M39.9159 1.89999H45.1159L42.7387 6.64999L31.8559 28.5L20.973 6.64999L18.5959 1.89999H23.7959L26.173 6.64999L31.8559 18.05L37.5387 6.64999L39.9159 1.89999Z" fill="#303030"/>
</svg>
