<svg width="35" height="35" viewBox="0 0 35 35" fill="none" xmlns="http://www.w3.org/2000/svg">
<g clip-path="url(#clip0_3711_914)">
<path d="M17.5 0C7.83501 0 0 7.83501 0 17.5C0 27.165 7.83501 35 17.5 35C27.165 35 35 27.165 35 17.5C35 7.83501 27.165 0 17.5 0ZM21.6277 12.9772H13.4224L13.371 12.9771V11.913C13.371 9.56566 15.2229 7.65625 17.4994 7.65625C19.7757 7.65625 21.6277 9.56566 21.6277 11.913V12.9772ZM17.4993 20.4265C15.2229 20.4265 13.3709 18.5169 13.3709 16.1698V15.1056H21.6277V16.1698C21.6277 18.517 19.7756 20.4265 17.4993 20.4265ZM15.1633 27.3438V26.83C15.1633 26.1979 15.697 25.6493 16.4672 25.3846V23.9902C12.7325 23.4685 9.84375 20.1614 9.84375 16.1698V14.0413C9.84375 13.6733 10.3152 13.3737 10.8946 13.3737C11.4739 13.3737 11.9455 13.6733 11.9455 14.0413V16.1698C11.9455 19.3278 14.4372 21.897 17.5 21.897C20.5628 21.897 23.0545 19.3278 23.0545 16.1698V14.0413C23.0545 13.6733 23.526 13.3737 24.1054 13.3737C24.6848 13.3737 25.1562 13.6733 25.1562 14.0413V16.1698C25.1562 20.1618 22.2667 23.4691 18.5314 23.9905V25.3846C19.3015 25.6493 19.8353 26.1979 19.8353 26.83V27.3438H18.5314H16.4672H15.1633Z" fill="#3193FF"/>
</g>
<defs>
<clipPath id="clip0_3711_914">
<rect width="35" height="35" fill="white"/>
</clipPath>
</defs>
</svg>
